<?xml version="1.0" encoding="iso-8859-1"?>
<!-- Generator: Adobe Illustrator 19.0.0, SVG Export Plug-In . SVG Version: 6.00 Build 0)  -->
<svg version="1.1" id="Layer_1" xmlns="http://www.w3.org/2000/svg" xmlns:xlink="http://www.w3.org/1999/xlink" x="0px" y="0px"
	 viewBox="0 0 330 330" style="enable-background:new 0 0 330 330;" xml:space="preserve">
<path id="XMLID_307_" d="M315,0H15C6.716,0,0,6.717,0,15v300c0,8.283,6.716,15,15,15h300c8.285,0,15-6.717,15-15V15
	C330,6.717,323.285,0,315,0z M179.14,179.14c-3.72,3.72-8.88,5.86-14.14,5.86c-5.26,0-10.42-2.141-14.141-5.86
	C147.14,175.42,145,170.27,145,165s2.14-10.42,5.859-14.141C154.58,147.13,159.74,145,165,145c5.27,0,10.42,2.13,14.14,5.859
	c3.72,3.721,5.86,8.881,5.86,14.141S182.859,175.42,179.14,179.14z"/>
<g>
</g>
<g>
</g>
<g>
</g>
<g>
</g>
<g>
</g>
<g>
</g>
<g>
</g>
<g>
</g>
<g>
</g>
<g>
</g>
<g>
</g>
<g>
</g>
<g>
</g>
<g>
</g>
<g>
</g>
</svg>
