<?xml version="1.0" encoding="iso-8859-1"?>
<!-- Generator: Adobe Illustrator 19.0.0, SVG Export Plug-In . SVG Version: 6.00 Build 0)  -->
<svg version="1.1" id="Layer_1" xmlns="http://www.w3.org/2000/svg" xmlns:xlink="http://www.w3.org/1999/xlink" x="0px" y="0px"
	 viewBox="0 0 481.882 481.882" style="enable-background:new 0 0 481.882 481.882;" xml:space="preserve">
<g>
	<g>
		<path d="M437.106,0H44.775C20.084,0,0,20.085,0,44.776v392.331c0,24.69,20.084,44.775,44.775,44.775h392.331
			c24.691,0,44.776-20.085,44.776-44.775V44.776C481.882,20.085,461.798,0,437.106,0z M108.61,159.768
			c-23.029,0-41.697-18.668-41.697-41.697c0-23.028,18.668-41.696,41.697-41.696c23.028,0,41.696,18.668,41.696,41.696
			C150.307,141.1,131.638,159.768,108.61,159.768z M240.941,282.64c-23.029,0-41.697-18.669-41.697-41.697
			c0-23.029,18.668-41.697,41.697-41.697c23.029,0,41.697,18.668,41.697,41.697C282.638,263.971,263.97,282.64,240.941,282.64z
			 M373.272,405.511c-23.029,0-41.697-18.668-41.697-41.697c0-23.029,18.668-41.696,41.697-41.696
			c23.028,0,41.697,18.668,41.697,41.696C414.969,386.842,396.3,405.511,373.272,405.511z"/>
	</g>
</g>
<g>
</g>
<g>
</g>
<g>
</g>
<g>
</g>
<g>
</g>
<g>
</g>
<g>
</g>
<g>
</g>
<g>
</g>
<g>
</g>
<g>
</g>
<g>
</g>
<g>
</g>
<g>
</g>
<g>
</g>
</svg>
