<svg height="191pt" viewBox="0 0 191 191.71605" width="191pt" xmlns="http://www.w3.org/2000/svg"><path d="m80.476562 95.859375h-64.09375c-8.8125 0-16.023437 7.210937-16.023437 16.023437v64.09375c0 8.8125 7.210937 16.023438 16.023437 16.023438h64.09375c8.8125 0 16.023438-7.210938 16.023438-16.023438v-64.09375c0-8.8125-7.210938-16.023437-16.023438-16.023437zm-48.070312 72.105469c-4.40625 0-8.011719-3.605469-8.011719-8.011719s3.605469-8.011719 8.011719-8.011719 8.011719 3.605469 8.011719 8.011719-3.605469 8.011719-8.011719 8.011719zm16.023438-16.023438c-4.40625 0-8.011719-3.605468-8.011719-8.011718s3.605469-8.011719 8.011719-8.011719 8.011718 3.605469 8.011718 8.011719-3.605468 8.011718-8.011718 8.011718zm16.023437-16.023437c-4.40625 0-8.011719-3.605469-8.011719-8.011719s3.605469-8.011719 8.011719-8.011719 8.011719 3.605469 8.011719 8.011719-3.605469 8.011719-8.011719 8.011719zm0 0"/><path d="m189.238281 58.300781-37.757812-51.773437c-5.308594-7.113282-15.222657-8.613282-22.433594-3.507813l-51.773437 37.855469c-7.113282 5.210938-8.714844 15.222656-3.507813 22.433594l37.855469 51.777344c5.308594 7.109374 15.222656 8.613281 22.433594 3.503906l51.777343-37.855469c7.011719-5.308594 8.613281-15.222656 3.40625-22.433594zm-75.3125 5.507813c-3.605469 2.605468-8.613281 1.804687-11.214843-1.699219-2.605469-3.507813-1.804688-8.613281 1.699218-11.21875 3.605469-2.601563 8.613282-1.800781 11.21875 1.703125 2.601563 3.605469 1.800782 8.613281-1.703125 11.214844zm18.828125 25.839844c-3.605468 2.605468-8.613281 1.804687-11.214844-1.703126-2.605468-3.605468-1.804687-8.613281 1.699219-11.214843 3.605469-2.605469 8.613281-1.804688 11.21875 1.703125 2.703125 3.605468 1.902344 8.609375-1.703125 11.214844zm3.503906-22.332032c-3.605468 2.601563-8.613281 1.800782-11.214843-1.703125-2.605469-3.605469-1.804688-8.613281 1.703125-11.214843 3.605468-2.605469 8.613281-1.804688 11.214844 1.699218 2.703124 3.507813 1.902343 8.613282-1.703126 11.21875zm3.507813-22.433594c-3.605469 2.601563-8.613281 1.800782-11.21875-1.703124-2.601563-3.605469-1.800781-8.613282 1.703125-11.214844 3.605469-2.605469 8.613281-1.804688 11.214844 1.699218 2.605468 3.605469 1.90625 8.613282-1.699219 11.21875zm18.925781 25.835938c-3.605468 2.605469-8.613281 1.804688-11.214844-1.699219-2.605468-3.605469-1.804687-8.613281 1.703126-11.21875 3.503906-2.601562 8.609374-1.800781 11.214843 1.703125 2.605469 3.605469 1.804688 8.613282-1.703125 11.214844zm0 0"/></svg>